<svg width="192" height="192" viewBox="0 0 192 192" fill="none" xmlns="http://www.w3.org/2000/svg">
<g clip-path="url(#clip0_3385_4518)">
<rect width="192" height="192" fill="#FF62A1"/>
<path d="M30 70.6849C30 64.693 34.8574 59.8356 40.8493 59.8356H151.151C157.143 59.8356 162 64.693 162 70.6849V151.151C162 157.143 157.143 162 151.151 162H40.8493C34.8574 162 30 157.143 30 151.151V70.6849Z" fill="#F8F5F0"/>
<path fill-rule="evenodd" clip-rule="evenodd" d="M96 30C109.848 30 120.981 36.0622 128.463 45.8016C135.423 54.8607 139.01 66.7756 139.365 79.4373H151.151C157.143 79.4373 162 84.2947 162 90.2866V151.151C162 157.143 157.143 162 151.151 162H40.8493C34.8574 162 30 157.143 30 151.151V70.6849C30 64.693 34.8574 59.8356 40.8493 59.8356H56.0859C57.8724 54.6942 60.3509 49.9485 63.5368 45.8016C71.0195 36.0622 82.1519 30 96 30ZM96 44.4658C86.7935 44.4658 79.8435 48.3206 75.0077 54.6149C73.7993 56.1878 72.7116 57.935 71.7541 59.8356H91.5386C94.6499 59.8357 97.6118 61.1712 99.6712 63.5033L110.502 75.7688C112.561 78.1009 115.523 79.4373 118.635 79.4373H124.895C124.544 69.313 121.649 60.6768 116.992 54.6149C112.156 48.3206 105.207 44.4658 96 44.4658Z" fill="#111111"/>
<path fill-rule="evenodd" clip-rule="evenodd" d="M76.4972 92.3836C85.6989 92.3838 93.1579 101.087 93.1579 111.822C93.1579 122.557 85.6989 131.26 76.4972 131.26C67.2953 131.26 59.8356 122.557 59.8356 111.822C59.8356 101.086 67.2953 92.3836 76.4972 92.3836ZM66.4999 105.713C63.4327 105.713 60.9465 108.448 60.9463 111.822C60.9463 115.196 63.4326 117.932 66.4999 117.932C69.5672 117.932 72.0535 115.196 72.0535 111.822C72.0533 108.448 69.5671 105.713 66.4999 105.713Z" fill="#111111"/>
<path fill-rule="evenodd" clip-rule="evenodd" d="M115.241 92.3836C124.442 92.3836 131.902 101.086 131.902 111.822C131.902 122.557 124.442 131.26 115.241 131.26C106.039 131.26 98.5799 122.557 98.5799 111.822C98.5799 101.087 106.039 92.3837 115.241 92.3836ZM105.244 105.713C102.177 105.713 99.6907 108.448 99.6906 111.822C99.6906 115.196 102.177 117.932 105.244 117.932C108.311 117.932 110.798 115.196 110.798 111.822C110.798 108.448 108.311 105.713 105.244 105.713Z" fill="#111111"/>
<path fill-rule="evenodd" clip-rule="evenodd" d="M76.4972 92.3836C85.6989 92.3838 93.1579 101.087 93.1579 111.822C93.1579 122.557 85.6989 131.26 76.4972 131.26C67.2953 131.26 59.8356 122.557 59.8356 111.822C59.8356 101.086 67.2953 92.3836 76.4972 92.3836ZM66.4999 105.713C63.4327 105.713 60.9465 108.448 60.9463 111.822C60.9463 115.196 63.4326 117.932 66.4999 117.932C69.5672 117.932 72.0535 115.196 72.0535 111.822C72.0533 108.448 69.5671 105.713 66.4999 105.713Z" fill="#FF62A1"/>
<path fill-rule="evenodd" clip-rule="evenodd" d="M115.241 92.3836C124.442 92.3836 131.902 101.086 131.902 111.822C131.902 122.557 124.442 131.26 115.241 131.26C106.039 131.26 98.5799 122.557 98.5799 111.822C98.5799 101.087 106.039 92.3837 115.241 92.3836ZM105.244 105.713C102.177 105.713 99.6907 108.448 99.6906 111.822C99.6906 115.196 102.177 117.932 105.244 117.932C108.311 117.932 110.798 115.196 110.798 111.822C110.798 108.448 108.311 105.713 105.244 105.713Z" fill="#FF62A1"/>
<path fill-rule="evenodd" clip-rule="evenodd" d="M76.4972 92.3836C85.6989 92.3838 93.1579 101.087 93.1579 111.822C93.1579 122.557 85.6989 131.26 76.4972 131.26C67.2953 131.26 59.8356 122.557 59.8356 111.822C59.8356 101.086 67.2953 92.3836 76.4972 92.3836ZM66.4999 105.713C63.4327 105.713 60.9465 108.448 60.9463 111.822C60.9463 115.196 63.4326 117.932 66.4999 117.932C69.5672 117.932 72.0535 115.196 72.0535 111.822C72.0533 108.448 69.5671 105.713 66.4999 105.713Z" fill="white"/>
<path fill-rule="evenodd" clip-rule="evenodd" d="M115.241 92.3836C124.442 92.3836 131.902 101.086 131.902 111.822C131.902 122.557 124.442 131.26 115.241 131.26C106.039 131.26 98.5799 122.557 98.5799 111.822C98.5799 101.087 106.039 92.3837 115.241 92.3836ZM105.244 105.713C102.177 105.713 99.6907 108.448 99.6906 111.822C99.6906 115.196 102.177 117.932 105.244 117.932C108.311 117.932 110.798 115.196 110.798 111.822C110.798 108.448 108.311 105.713 105.244 105.713Z" fill="white"/>
</g>
<defs>
<clipPath id="clip0_3385_4518">
<rect width="192" height="192" fill="white"/>
</clipPath>
</defs>
</svg>
