<svg width="512" height="512" viewBox="0 0 512 512" fill="none" xmlns="http://www.w3.org/2000/svg">
<g clip-path="url(#clip0_3385_4423)">
<rect width="512" height="512" fill="#FF62A1"/>
<path d="M70 184.658C70 167.771 83.689 154.082 100.575 154.082H411.425C428.311 154.082 442 167.771 442 184.658V411.425C442 428.311 428.311 442 411.425 442H100.575C83.689 442 70 428.311 70 411.425V184.658Z" fill="#F8F5F0"/>
<path fill-rule="evenodd" clip-rule="evenodd" d="M256 70C295.027 70 326.4 87.0843 347.487 114.532C367.101 140.062 377.21 173.64 378.212 209.323H411.425C428.311 209.323 442 223.012 442 239.899V411.425C442 428.311 428.311 442 411.425 442H100.575C83.689 442 70 428.311 70 411.425V184.658C70 167.771 83.689 154.082 100.575 154.082H143.515C148.549 139.593 155.534 126.219 164.513 114.532C185.6 87.0843 216.973 70 256 70ZM256 110.767C230.054 110.767 210.468 121.631 196.84 139.369C193.434 143.802 190.369 148.726 187.671 154.082H243.427C252.195 154.082 260.542 157.846 266.346 164.418L296.869 198.985C302.673 205.557 311.02 209.323 319.788 209.323H337.432C336.442 180.791 328.285 156.453 315.16 139.369C301.532 121.631 281.946 110.767 256 110.767Z" fill="#111111"/>
<path fill-rule="evenodd" clip-rule="evenodd" d="M201.038 245.808C226.97 245.809 247.99 270.335 247.99 300.589C247.99 330.843 226.97 355.369 201.038 355.37C175.105 355.37 154.082 330.844 154.082 300.589C154.082 270.334 175.105 245.808 201.038 245.808ZM172.863 283.373C164.22 283.373 157.213 291.081 157.212 300.589C157.212 310.098 164.219 317.807 172.863 317.808C181.508 317.808 188.514 310.098 188.514 300.589C188.514 291.081 181.507 283.373 172.863 283.373Z" fill="#111111"/>
<path fill-rule="evenodd" clip-rule="evenodd" d="M310.223 245.808C336.156 245.808 357.179 270.334 357.179 300.589C357.179 330.844 336.156 355.37 310.223 355.37C284.291 355.369 263.271 330.843 263.271 300.589C263.271 270.335 284.291 245.809 310.223 245.808ZM282.052 283.373C273.408 283.373 266.401 291.081 266.401 300.589C266.401 310.098 273.408 317.808 282.052 317.808C290.696 317.807 297.703 310.097 297.703 300.589C297.702 291.081 290.696 283.373 282.052 283.373Z" fill="#111111"/>
<path fill-rule="evenodd" clip-rule="evenodd" d="M201.038 245.808C226.97 245.809 247.99 270.335 247.99 300.589C247.99 330.843 226.97 355.369 201.038 355.37C175.105 355.37 154.082 330.844 154.082 300.589C154.082 270.334 175.105 245.808 201.038 245.808ZM172.863 283.373C164.22 283.373 157.213 291.081 157.212 300.589C157.212 310.098 164.219 317.807 172.863 317.808C181.508 317.808 188.514 310.098 188.514 300.589C188.514 291.081 181.507 283.373 172.863 283.373Z" fill="#FF62A1"/>
<path fill-rule="evenodd" clip-rule="evenodd" d="M310.223 245.808C336.156 245.808 357.179 270.334 357.179 300.589C357.179 330.844 336.156 355.37 310.223 355.37C284.291 355.369 263.271 330.843 263.271 300.589C263.271 270.335 284.291 245.809 310.223 245.808ZM282.052 283.373C273.408 283.373 266.401 291.081 266.401 300.589C266.401 310.098 273.408 317.808 282.052 317.808C290.696 317.807 297.703 310.097 297.703 300.589C297.702 291.081 290.696 283.373 282.052 283.373Z" fill="#FF62A1"/>
<path fill-rule="evenodd" clip-rule="evenodd" d="M201.038 245.808C226.97 245.809 247.99 270.335 247.99 300.589C247.99 330.843 226.97 355.369 201.038 355.37C175.105 355.37 154.082 330.844 154.082 300.589C154.082 270.334 175.105 245.808 201.038 245.808ZM172.863 283.373C164.22 283.373 157.213 291.081 157.212 300.589C157.212 310.098 164.219 317.807 172.863 317.808C181.508 317.808 188.514 310.098 188.514 300.589C188.514 291.081 181.507 283.373 172.863 283.373Z" fill="white"/>
<path fill-rule="evenodd" clip-rule="evenodd" d="M310.223 245.808C336.156 245.808 357.179 270.334 357.179 300.589C357.179 330.844 336.156 355.37 310.223 355.37C284.291 355.369 263.271 330.843 263.271 300.589C263.271 270.335 284.291 245.809 310.223 245.808ZM282.052 283.373C273.408 283.373 266.401 291.081 266.401 300.589C266.401 310.098 273.408 317.808 282.052 317.808C290.696 317.807 297.703 310.097 297.703 300.589C297.702 291.081 290.696 283.373 282.052 283.373Z" fill="white"/>
</g>
<defs>
<clipPath id="clip0_3385_4423">
<rect width="512" height="512" fill="white"/>
</clipPath>
</defs>
</svg>
