<svg width="146" height="146" viewBox="0 0 146 146" fill="none" xmlns="http://www.w3.org/2000/svg">
<path d="M0 45C0 38.3726 5.37258 33 12 33H134C140.627 33 146 38.3726 146 45V134C146 140.627 140.627 146 134 146H12C5.37258 146 0 140.627 0 134V45Z" fill="#F8F5F0"/>
<path fill-rule="evenodd" clip-rule="evenodd" d="M73 0C88.3169 0 100.63 6.70514 108.906 17.4775C116.604 27.4975 120.572 40.676 120.965 54.6807H134C140.627 54.6807 146 60.0532 146 66.6807V134C146 140.627 140.627 146 134 146H12C5.37258 146 0 140.627 0 134V45C0 38.3726 5.37258 33 12 33H28.8525C30.8285 27.3133 33.5699 22.0643 37.0938 17.4775C45.3701 6.70514 57.6831 0 73 0ZM73 16C62.817 16 55.1299 20.2636 49.7812 27.2256C48.4447 28.9653 47.2416 30.8979 46.1826 33H68.0654C71.5067 33.0001 74.7827 34.4772 77.0605 37.0566L89.04 50.623C91.3179 53.2026 94.5939 54.6807 98.0352 54.6807H104.96C104.571 43.4826 101.37 33.9303 96.2188 27.2256C90.8701 20.2636 83.183 16 73 16Z" fill="#111111"/>
<path fill-rule="evenodd" clip-rule="evenodd" d="M51.4287 69C61.6064 69.0002 69.8564 78.626 69.8564 90.5C69.8564 102.374 61.6063 112 51.4287 112C41.2509 112 33 102.374 33 90.5C33 78.6259 41.2509 69 51.4287 69ZM40.3711 83.7432C36.9786 83.7432 34.2287 86.7683 34.2285 90.5C34.2285 94.2318 36.9785 97.2578 40.3711 97.2578C43.7637 97.2578 46.5137 94.2319 46.5137 90.5C46.5135 86.7683 43.7636 83.7432 40.3711 83.7432Z" fill="white"/>
<path fill-rule="evenodd" clip-rule="evenodd" d="M94.2812 69C104.459 69 112.71 78.6259 112.71 90.5C112.71 102.374 104.459 112 94.2812 112C84.1036 112 75.8535 102.374 75.8535 90.5C75.8535 78.626 84.1036 69.0002 94.2812 69ZM83.2246 83.7432C79.8321 83.7432 77.0822 86.7683 77.082 90.5C77.082 94.2319 79.832 97.2578 83.2246 97.2578C86.6171 97.2577 89.3672 94.2318 89.3672 90.5C89.367 86.7683 86.6171 83.7433 83.2246 83.7432Z" fill="white"/>
</svg>
