<svg width="24" height="24" viewBox="0 0 24 24" fill="none" xmlns="http://www.w3.org/2000/svg">
<path d="M12 10.4081L7.92701 14.4814C7.78851 14.6197 7.61443 14.6905 7.40476 14.6939C7.19526 14.697 7.01801 14.6262 6.87301 14.4814C6.72818 14.3364 6.65576 14.1607 6.65576 13.9544C6.65576 13.748 6.72818 13.5724 6.87301 13.4274L11.3673 8.93311C11.5481 8.75244 11.759 8.66211 12 8.66211C12.241 8.66211 12.4519 8.75244 12.6328 8.93311L17.127 13.4274C17.2653 13.5659 17.3362 13.7399 17.3395 13.9496C17.3427 14.1591 17.2718 14.3364 17.127 14.4814C16.982 14.6262 16.8063 14.6986 16.6 14.6986C16.3937 14.6986 16.218 14.6262 16.073 14.4814L12 10.4081Z" fill="black"/>
</svg>
