<svg width="24" height="24" viewBox="0 0 24 24" fill="none" xmlns="http://www.w3.org/2000/svg">
<path d="M13.9463 11.9995L9.87301 7.92652C9.73468 7.78802 9.66385 7.61394 9.66051 7.40427C9.65735 7.19477 9.72818 7.01752 9.87301 6.87252C10.018 6.72769 10.1937 6.65527 10.4 6.65527C10.6063 6.65527 10.782 6.72769 10.927 6.87252L15.4213 11.3668C15.5148 11.4604 15.5808 11.5592 15.6193 11.663C15.6578 11.7669 15.677 11.879 15.677 11.9995C15.677 12.12 15.6578 12.2322 15.6193 12.336C15.5808 12.4399 15.5148 12.5386 15.4213 12.6323L10.927 17.1265C10.7885 17.2649 10.6144 17.3357 10.4048 17.339C10.1953 17.3422 10.018 17.2714 9.87301 17.1265C9.72818 16.9815 9.65576 16.8059 9.65576 16.5995C9.65576 16.3932 9.72818 16.2175 9.87301 16.0725L13.9463 11.9995Z" fill="black"/>
</svg>
