<svg width="24" height="24" viewBox="0 0 24 24" fill="none" xmlns="http://www.w3.org/2000/svg">
<path d="M16.8305 11.9995L9.29777 4.46676C9.0991 4.2681 9.00235 4.03159 9.00752 3.75726C9.01269 3.48293 9.1146 3.24634 9.31327 3.04751C9.51194 2.84884 9.74844 2.74951 10.0228 2.74951C10.2971 2.74951 10.5337 2.84884 10.7325 3.04751L18.3883 10.7188C18.5689 10.8996 18.7029 11.1022 18.79 11.3265C18.8774 11.5508 18.921 11.7752 18.921 11.9995C18.921 12.2238 18.8774 12.4482 18.79 12.6725C18.7029 12.8968 18.5689 13.0994 18.3883 13.2803L10.717 20.9515C10.5184 21.1502 10.2844 21.2469 10.0153 21.2418C9.74594 21.2366 9.51194 21.1347 9.31327 20.936C9.1146 20.7373 9.01527 20.5008 9.01527 20.2265C9.01527 19.9522 9.1146 19.7156 9.31327 19.5168L16.8305 11.9995Z" fill="black"/>
</svg>
