<svg width="24" height="24" viewBox="0 0 24 24" fill="none" xmlns="http://www.w3.org/2000/svg">
<path d="M7.18449 11.9993L14.7172 19.532C14.9159 19.7307 15.0127 19.9646 15.0077 20.2338C15.0026 20.5031 14.9007 20.7371 14.702 20.9358C14.5032 21.1345 14.2692 21.2338 14 21.2338C13.7308 21.2338 13.4968 21.1345 13.298 20.9358L5.62699 13.28C5.44615 13.0992 5.31216 12.8966 5.22499 12.6723C5.13782 12.448 5.09424 12.2236 5.09424 11.9993C5.09424 11.775 5.13782 11.5506 5.22499 11.3263C5.31216 11.1019 5.44615 10.8994 5.62699 10.7185L13.298 3.04728C13.4968 2.84862 13.7334 2.75187 14.0077 2.75703C14.2821 2.7622 14.5186 2.86412 14.7172 3.06278C14.9159 3.26145 15.0152 3.49545 15.0152 3.76478C15.0152 4.03395 14.9159 4.26787 14.7172 4.46653L7.18449 11.9993Z" fill="black"/>
</svg>
