<svg width="24" height="24" viewBox="0 0 24 24" fill="none" xmlns="http://www.w3.org/2000/svg">
<path d="M11.9998 14.6213C11.8793 14.6213 11.7671 14.6021 11.6633 14.5636C11.5594 14.5251 11.4607 14.4591 11.367 14.3656L6.87276 9.87135C6.73442 9.73285 6.66359 9.55876 6.66026 9.3491C6.65709 9.1396 6.72792 8.96235 6.87276 8.81735C7.01776 8.67251 7.19342 8.6001 7.39976 8.6001C7.60609 8.6001 7.78176 8.67251 7.92676 8.81735L11.9998 12.8906L16.0728 8.81735C16.2113 8.67901 16.3853 8.60818 16.595 8.60485C16.8045 8.60168 16.9818 8.67251 17.1268 8.81735C17.2716 8.96235 17.344 9.13801 17.344 9.34435C17.344 9.55068 17.2716 9.72635 17.1268 9.87135L12.6325 14.3656C12.5388 14.4591 12.4401 14.5251 12.3363 14.5636C12.2324 14.6021 12.1203 14.6213 11.9998 14.6213Z" fill="black"/>
</svg>
