<svg width="24" height="24" viewBox="0 0 24 24" fill="none" xmlns="http://www.w3.org/2000/svg">
<path d="M9.45389 12.0002L13.5271 16.0732C13.6655 16.2117 13.7363 16.3858 13.7396 16.5955C13.7428 16.805 13.672 16.9822 13.5271 17.1272C13.3821 17.2721 13.2065 17.3445 13.0001 17.3445C12.7938 17.3445 12.6181 17.2721 12.4731 17.1272L7.97889 12.633C7.88539 12.5393 7.81939 12.4406 7.78089 12.3367C7.74239 12.2329 7.72314 12.1207 7.72314 12.0002C7.72314 11.8797 7.74239 11.7676 7.78089 11.6637C7.81939 11.5599 7.88539 11.4612 7.97889 11.3675L12.4731 6.87325C12.6116 6.73491 12.7857 6.66408 12.9954 6.66075C13.2049 6.65758 13.3821 6.72841 13.5271 6.87325C13.672 7.01825 13.7444 7.19391 13.7444 7.40025C13.7444 7.60658 13.672 7.78225 13.5271 7.92725L9.45389 12.0002Z" fill="black"/>
</svg>
