<svg width="24" height="24" viewBox="0 0 24 24" fill="none" xmlns="http://www.w3.org/2000/svg">
<path d="M11.9996 13.0635L8.91939 16.152C8.77339 16.2968 8.59639 16.3677 8.38839 16.3645C8.18022 16.3612 8.00322 16.2871 7.85739 16.1423C7.71255 15.9974 7.64014 15.8202 7.64014 15.6105C7.64014 15.401 7.71255 15.2238 7.85739 15.0788L10.9361 12.0008L7.85739 8.94476C7.71255 8.79876 7.64014 8.62018 7.64014 8.40901C7.64014 8.19768 7.71255 8.01901 7.85739 7.87301C8.00222 7.72818 8.17947 7.65576 8.38914 7.65576C8.59864 7.65576 8.77589 7.72818 8.92089 7.87301L11.9996 10.9615L15.0549 7.87301C15.2009 7.72818 15.3779 7.65576 15.5859 7.65576C15.7941 7.65576 15.9711 7.72818 16.1169 7.87301C16.2721 8.02818 16.3496 8.20801 16.3496 8.41251C16.3496 8.61701 16.2721 8.79168 16.1169 8.93651L13.0381 12L16.1266 15.0803C16.2715 15.2263 16.3439 15.4033 16.3439 15.6113C16.3439 15.8194 16.2715 15.9964 16.1266 16.1423C15.9715 16.2974 15.7916 16.375 15.5871 16.375C15.3826 16.375 15.208 16.2974 15.0631 16.1423L11.9996 13.0635Z" fill="black"/>
</svg>
