<svg width="26" height="23" viewBox="0 0 26 23" fill="none" xmlns="http://www.w3.org/2000/svg">
<path d="M3.36662 11.3669V0.700195M3.36662 11.3669C1.89386 11.3669 0.699951 12.5608 0.699951 14.0335C0.699951 15.5063 1.89386 16.7002 3.36662 16.7002M3.36662 11.3669C4.83938 11.3669 6.03328 12.5608 6.03328 14.0335C6.03328 15.5063 4.83938 16.7002 3.36662 16.7002M22.0333 22.0335V18.0335M22.0333 18.0335C23.506 18.0335 24.7 16.8396 24.7 15.3669C24.7 13.8941 23.506 12.7002 22.0333 12.7002M22.0333 18.0335C20.5605 18.0335 19.3666 16.8396 19.3666 15.3669C19.3666 13.8941 20.5605 12.7002 22.0333 12.7002M3.36662 22.0335V16.7002M22.0333 12.7002V0.700195M12.7 4.7002V0.700195M12.7 4.7002C11.2272 4.7002 10.0333 5.8941 10.0333 7.36686C10.0333 8.83962 11.2272 10.0335 12.7 10.0335M12.7 4.7002C14.1727 4.7002 15.3666 5.8941 15.3666 7.36686C15.3666 8.83962 14.1727 10.0335 12.7 10.0335M12.7 22.0335V10.0335" stroke="#2A2A2A" stroke-width="1.4" stroke-linecap="round"/>
</svg>
