<svg width="24" height="24" viewBox="0 0 24 24" fill="none" xmlns="http://www.w3.org/2000/svg">
<path d="M6.40918 13.7925C5.99668 13.7925 5.6436 13.6456 5.34993 13.3517C5.0561 13.0581 4.90918 12.705 4.90918 12.2925C4.90918 11.88 5.0561 11.5269 5.34993 11.2332C5.6436 10.9394 5.99668 10.7925 6.40918 10.7925C6.82168 10.7925 7.17485 10.9394 7.46868 11.2332C7.76235 11.5269 7.90918 11.88 7.90918 12.2925C7.90918 12.705 7.76235 13.0581 7.46868 13.3517C7.17485 13.6456 6.82168 13.7925 6.40918 13.7925ZM12.1784 13.7925C11.7659 13.7925 11.4128 13.6456 11.1192 13.3517C10.8253 13.0581 10.6784 12.705 10.6784 12.2925C10.6784 11.88 10.8253 11.5269 11.1192 11.2332C11.4128 10.9394 11.7659 10.7925 12.1784 10.7925C12.5909 10.7925 12.944 10.9394 13.2377 11.2332C13.5315 11.5269 13.6784 11.88 13.6784 12.2925C13.6784 12.705 13.5315 13.0581 13.2377 13.3517C12.944 13.6456 12.5909 13.7925 12.1784 13.7925ZM17.9477 13.7925C17.5352 13.7925 17.182 13.6456 16.8882 13.3517C16.5945 13.0581 16.4477 12.705 16.4477 12.2925C16.4477 11.88 16.5945 11.5269 16.8882 11.2332C17.182 10.9394 17.5352 10.7925 17.9477 10.7925C18.3602 10.7925 18.7133 10.9394 19.0069 11.2332C19.3008 11.5269 19.4477 11.88 19.4477 12.2925C19.4477 12.705 19.3008 13.0581 19.0069 13.3517C18.7133 13.6456 18.3602 13.7925 17.9477 13.7925Z" fill="#1C1B1F"/>
</svg>
