<svg width="24" height="24" viewBox="0 0 24 24" fill="none" xmlns="http://www.w3.org/2000/svg">
<path d="M11.5702 13.3978C11.431 13.3593 11.2929 13.3048 11.1557 13.2343L2.99421 8.89408C2.83005 8.80041 2.71213 8.68499 2.64046 8.54783C2.56863 8.41066 2.53271 8.26008 2.53271 8.09608C2.53271 7.93191 2.56863 7.78124 2.64046 7.64408C2.71213 7.50691 2.83005 7.39149 2.99421 7.29783L11.1557 2.95758C11.2929 2.88708 11.431 2.83258 11.5702 2.79408C11.7092 2.75558 11.8525 2.73633 12 2.73633C12.1475 2.73633 12.2907 2.75558 12.4297 2.79408C12.5689 2.83258 12.707 2.88708 12.8442 2.95758L21.0152 7.29783C21.1794 7.39149 21.2974 7.50691 21.3692 7.64408C21.441 7.78124 21.477 7.93191 21.477 8.09608C21.477 8.26008 21.441 8.41066 21.3692 8.54783C21.2974 8.68499 21.1794 8.80041 21.0152 8.89408L12.8442 13.2343C12.707 13.3048 12.5689 13.3593 12.4297 13.3978C12.2907 13.4363 12.1475 13.4556 12 13.4556C11.8525 13.4556 11.7092 13.4363 11.5702 13.3978ZM12 15.8883L20.0037 11.6518C20.0435 11.6287 20.1795 11.6062 20.4115 11.5846C20.6115 11.5972 20.7752 11.6722 20.9027 11.8096C21.0304 11.9467 21.0942 12.1153 21.0942 12.3153C21.0942 12.4537 21.0637 12.5786 21.0027 12.6901C20.9419 12.8017 20.8422 12.8947 20.7037 12.9691L12.8442 17.1383C12.707 17.2088 12.5689 17.2633 12.4297 17.3018C12.2907 17.3402 12.1475 17.3593 12 17.3593C11.8525 17.3593 11.7092 17.3402 11.5702 17.3018C11.431 17.2633 11.2929 17.2088 11.1557 17.1383L3.30571 12.9691C3.16721 12.8947 3.06596 12.8017 3.00196 12.6901C2.9378 12.5786 2.90571 12.4537 2.90571 12.3153C2.90571 12.1153 2.97113 11.9467 3.10196 11.8096C3.23263 11.6722 3.39796 11.5972 3.59796 11.5846C3.66846 11.5717 3.73646 11.5714 3.80196 11.5836C3.8673 11.5957 3.93521 11.6185 4.00571 11.6518L12 15.8883ZM12 19.7921L20.0037 15.5556C20.0435 15.5326 20.1795 15.5102 20.4115 15.4883C20.6115 15.5012 20.7752 15.5762 20.9027 15.7133C21.0304 15.8505 21.0942 16.0191 21.0942 16.2191C21.0942 16.3576 21.0637 16.4826 21.0027 16.5941C20.9419 16.7056 20.8422 16.7985 20.7037 16.8728L12.8442 21.0421C12.707 21.1126 12.5689 21.1671 12.4297 21.2056C12.2907 21.2441 12.1475 21.2633 12 21.2633C11.8525 21.2633 11.7092 21.2441 11.5702 21.2056C11.431 21.1671 11.2929 21.1126 11.1557 21.0421L3.30571 16.8728C3.16721 16.7985 3.06596 16.7056 3.00196 16.5941C2.9378 16.4826 2.90571 16.3576 2.90571 16.2191C2.90571 16.0191 2.97113 15.8505 3.10196 15.7133C3.23263 15.5762 3.39796 15.5012 3.59796 15.4883C3.66846 15.4755 3.73646 15.4752 3.80196 15.4873C3.8673 15.4995 3.93521 15.5222 4.00571 15.5556L12 19.7921Z" fill="#1C1B1F"/>
</svg>
