<svg width="24" height="24" viewBox="0 0 24 24" fill="none" xmlns="http://www.w3.org/2000/svg">
<path d="M12 4C16.9719 4 21 7.17813 21 11.0969C21 15.0156 16.9719 18.1938 12 18.1938C11.4531 18.1938 10.9188 18.1563 10.4 18.0813C9.88125 18.4469 6.88125 20.5531 6.59687 20.5938C6.59687 20.5938 6.48125 20.6375 6.38125 20.5812C6.28125 20.525 6.3 20.3719 6.3 20.3719C6.33125 20.1656 7.08125 17.5844 7.21875 17.1062C4.68438 15.8531 3 13.6281 3 11.0938C3 7.175 7.02812 4 12 4ZM5.69375 8.975C5.4125 8.975 5.18438 9.20312 5.18438 9.48438C5.18438 9.76562 5.4125 9.99375 5.69375 9.99375H6.50312V13.0781C6.50312 13.3531 6.7375 13.575 7.02187 13.575C7.30625 13.575 7.54063 13.3531 7.54063 13.0781V9.99375H8.35C8.63125 9.99375 8.85938 9.76562 8.85938 9.48438C8.85938 9.20312 8.63125 8.975 8.35 8.975H5.69062H5.69375ZM10.0938 8.975C9.75625 8.98125 9.49062 9.2375 9.40312 9.4875L8.1625 12.7563C8.00625 13.2469 8.14375 13.4281 8.28438 13.4937C8.38438 13.5406 8.5 13.5656 8.61562 13.5656C8.83125 13.5656 8.99687 13.4781 9.04688 13.3375L9.30312 12.6625H10.8875L11.1438 13.3344C11.1938 13.475 11.3594 13.5625 11.575 13.5625C11.6906 13.5625 11.8031 13.5375 11.9062 13.4906C12.05 13.425 12.1875 13.2438 12.0281 12.7531L10.7875 9.4875C10.7 9.2375 10.4344 8.98125 10.0938 8.975ZM15.7469 8.975C15.4594 8.975 15.2281 9.20938 15.2281 9.49375V13.0469C15.2281 13.3344 15.4625 13.5656 15.7469 13.5656C16.0312 13.5656 16.2656 13.3313 16.2656 13.0469V11.9156L16.4469 11.7344L17.6625 13.3469C17.7625 13.4781 17.9125 13.5531 18.0781 13.5531C18.1906 13.5531 18.3 13.5187 18.3906 13.45C18.5 13.3656 18.5719 13.2437 18.5906 13.1062C18.6094 12.9687 18.575 12.8313 18.4906 12.7219L17.2125 11.0281L18.3969 9.84688C18.4781 9.76563 18.5187 9.65313 18.5125 9.53125C18.5062 9.40937 18.45 9.29375 18.3594 9.20312C18.2625 9.10625 18.1313 9.05 18.0031 9.05C17.8906 9.05 17.7906 9.09063 17.7156 9.16563L16.2688 10.6156V9.5C16.2688 9.2125 16.0344 8.98125 15.75 8.98125L15.7469 8.975ZM12.8938 8.975C12.6031 8.975 12.3656 9.20938 12.3656 9.49375V13.0188C12.3656 13.2813 12.5875 13.4937 12.8625 13.4969H14.5281C14.8031 13.4969 15.025 13.2813 15.025 13.0188C15.025 12.7563 14.8 12.5437 14.5281 12.5437H13.425V9.49375C13.425 9.20625 13.1875 8.975 12.8938 8.975ZM10.6125 11.7438H9.575L10.0938 10.2719L10.6125 11.7438Z" fill="black"/>
</svg>
