<svg width="66" height="66" viewBox="0 0 66 66" fill="none" xmlns="http://www.w3.org/2000/svg">
<path d="M0 20.3425C0 17.3465 2.4287 14.9178 5.42466 14.9178H60.5753C63.5713 14.9178 66 17.3465 66 20.3425V60.5753C66 63.5713 63.5713 66 60.5753 66H5.42466C2.4287 66 0 63.5713 0 60.5753V20.3425Z" fill="#FF62A1"/>
<path fill-rule="evenodd" clip-rule="evenodd" d="M33 0C39.9241 0 45.4902 3.03109 49.2316 7.90081C52.7115 12.4304 54.505 18.3878 54.6827 24.7187H60.5753C63.5713 24.7187 66 27.1474 66 30.1433V60.5753C66 63.5713 63.5713 66 60.5753 66H5.42466C2.4287 66 0 63.5713 0 60.5753V20.3425C0 17.3465 2.4287 14.9178 5.42466 14.9178H13.0429C13.9362 12.3471 15.1754 9.97425 16.7684 7.90081C20.5098 3.03109 26.0759 0 33 0ZM33 7.23288C28.3967 7.23288 24.9218 9.16028 22.5039 12.3075C21.8996 13.0939 21.3558 13.9675 20.8771 14.9178H30.7693C32.3249 14.9178 33.8059 15.5856 34.8356 16.7516L40.251 22.8844C41.2807 24.0505 42.7616 24.7187 44.3173 24.7187H47.4477C47.272 19.6565 45.8247 15.3384 43.4961 12.3075C41.0782 9.16028 37.6033 7.23288 33 7.23288Z" fill="#111111"/>
<path fill-rule="evenodd" clip-rule="evenodd" d="M23.2486 31.1918C27.8494 31.1919 31.5789 35.5433 31.5789 40.911C31.5789 46.2786 27.8494 50.63 23.2486 50.6301C18.6477 50.6301 14.9178 46.2787 14.9178 40.911C14.9178 35.5432 18.6477 31.1918 23.2486 31.1918ZM18.2499 37.8565C16.7164 37.8565 15.4732 39.224 15.4732 40.911C15.4732 42.5979 16.7163 43.9658 18.2499 43.9659C19.7836 43.9659 21.0267 42.598 21.0267 40.911C21.0267 39.224 19.7835 37.8565 18.2499 37.8565Z" fill="#111111"/>
<path fill-rule="evenodd" clip-rule="evenodd" d="M42.6203 31.1918C47.2212 31.1918 50.9511 35.5432 50.9511 40.911C50.9511 46.2787 47.2212 50.6301 42.6203 50.6301C38.0194 50.63 34.29 46.2786 34.2899 40.911C34.2899 35.5433 38.0194 31.1919 42.6203 31.1918ZM37.6221 37.8565C36.0885 37.8565 34.8454 39.224 34.8453 40.911C34.8453 42.598 36.0884 43.9659 37.6221 43.9659C39.1557 43.9658 40.3989 42.5979 40.3989 40.911C40.3988 39.224 39.1557 37.8565 37.6221 37.8565Z" fill="#111111"/>
<path fill-rule="evenodd" clip-rule="evenodd" d="M23.2486 31.1918C27.8494 31.1919 31.5789 35.5433 31.5789 40.911C31.5789 46.2786 27.8494 50.63 23.2486 50.6301C18.6477 50.6301 14.9178 46.2787 14.9178 40.911C14.9178 35.5432 18.6477 31.1918 23.2486 31.1918ZM18.2499 37.8565C16.7164 37.8565 15.4732 39.224 15.4732 40.911C15.4732 42.5979 16.7163 43.9658 18.2499 43.9659C19.7836 43.9659 21.0267 42.598 21.0267 40.911C21.0267 39.224 19.7835 37.8565 18.2499 37.8565Z" fill="#FF62A1"/>
<path fill-rule="evenodd" clip-rule="evenodd" d="M42.6203 31.1918C47.2212 31.1918 50.9511 35.5432 50.9511 40.911C50.9511 46.2787 47.2212 50.6301 42.6203 50.6301C38.0194 50.63 34.29 46.2786 34.2899 40.911C34.2899 35.5433 38.0194 31.1919 42.6203 31.1918ZM37.6221 37.8565C36.0885 37.8565 34.8454 39.224 34.8453 40.911C34.8453 42.598 36.0884 43.9659 37.6221 43.9659C39.1557 43.9658 40.3989 42.5979 40.3989 40.911C40.3988 39.224 39.1557 37.8565 37.6221 37.8565Z" fill="#FF62A1"/>
<path fill-rule="evenodd" clip-rule="evenodd" d="M23.2486 31.1918C27.8494 31.1919 31.5789 35.5433 31.5789 40.911C31.5789 46.2786 27.8494 50.63 23.2486 50.6301C18.6477 50.6301 14.9178 46.2787 14.9178 40.911C14.9178 35.5432 18.6477 31.1918 23.2486 31.1918ZM18.2499 37.8565C16.7164 37.8565 15.4732 39.224 15.4732 40.911C15.4732 42.5979 16.7163 43.9658 18.2499 43.9659C19.7836 43.9659 21.0267 42.598 21.0267 40.911C21.0267 39.224 19.7835 37.8565 18.2499 37.8565Z" fill="#F8F5F0"/>
<path fill-rule="evenodd" clip-rule="evenodd" d="M42.6203 31.1918C47.2212 31.1918 50.9511 35.5432 50.9511 40.911C50.9511 46.2787 47.2212 50.6301 42.6203 50.6301C38.0194 50.63 34.29 46.2786 34.2899 40.911C34.2899 35.5433 38.0194 31.1919 42.6203 31.1918ZM37.6221 37.8565C36.0885 37.8565 34.8454 39.224 34.8453 40.911C34.8453 42.598 36.0884 43.9659 37.6221 43.9659C39.1557 43.9658 40.3989 42.5979 40.3989 40.911C40.3988 39.224 39.1557 37.8565 37.6221 37.8565Z" fill="#F8F5F0"/>
</svg>
