<svg width="24" height="24" viewBox="0 0 24 24" fill="none" xmlns="http://www.w3.org/2000/svg">
<path d="M9.526 9.66638C8.842 8.98255 8.5 8.15788 8.5 7.19238C8.5 6.22705 8.842 5.40238 9.526 4.71838C10.21 4.03438 11.0347 3.69238 12 3.69238C12.9653 3.69238 13.79 4.03438 14.474 4.71838C15.158 5.40238 15.5 6.22705 15.5 7.19238C15.5 8.15788 15.158 8.98255 14.474 9.66638C13.79 10.3504 12.9653 10.6924 12 10.6924C11.0347 10.6924 10.21 10.3504 9.526 9.66638ZM4.5 16.7886V16.0846C4.5 15.595 4.633 15.1415 4.899 14.7241C5.165 14.3068 5.5205 13.986 5.9655 13.7616C6.95383 13.2771 7.95092 12.9137 8.95675 12.6714C9.96258 12.429 10.977 12.3079 12 12.3079C13.023 12.3079 14.0374 12.429 15.0433 12.6714C16.0491 12.9137 17.0462 13.2771 18.0345 13.7616C18.4795 13.986 18.835 14.3068 19.101 14.7241C19.367 15.1415 19.5 15.595 19.5 16.0846V16.7886C19.5 17.2103 19.3523 17.569 19.0568 17.8646C18.7613 18.1601 18.4026 18.3079 17.9808 18.3079H6.01925C5.59742 18.3079 5.23875 18.1601 4.94325 17.8646C4.64775 17.569 4.5 17.2103 4.5 16.7886Z" fill="#1C1B1F"/>
</svg>
