<svg width="352" height="138" viewBox="0 0 352 138" fill="none" xmlns="http://www.w3.org/2000/svg">
<g filter="url(#filter0_ddd_2670_1497)">
<path d="M8.5 26C8.5 14.9543 17.4543 6 28.5 6H323.5C334.546 6 343.5 14.9543 343.5 26V108C343.5 119.046 334.546 128 323.5 128H28.5C17.4543 128 8.5 119.046 8.5 108V26Z" fill="#EDEAE4" shape-rendering="crispEdges"/>
<path d="M8 26.0005C8 14.9548 16.9543 6.00052 28 6.00049L224.464 6.00002C229.118 6.00001 233.626 7.62271 237.211 10.5887L265.952 34.361C269.538 37.3269 274.046 38.9496 278.699 38.9497L323.5 38.95C334.546 38.9501 343.5 47.9044 343.5 58.95V108C343.5 119.046 334.546 128 323.5 128H28C16.9543 128 8 119.046 8 108V26.0005Z" fill="white"/>
</g>
<defs>
<filter id="filter0_ddd_2670_1497" x="0" y="0" width="351.5" height="138" filterUnits="userSpaceOnUse" color-interpolation-filters="sRGB">
<feFlood flood-opacity="0" result="BackgroundImageFix"/>
<feColorMatrix in="SourceAlpha" type="matrix" values="0 0 0 0 0 0 0 0 0 0 0 0 0 0 0 0 0 0 127 0" result="hardAlpha"/>
<feOffset/>
<feGaussianBlur stdDeviation="0.5"/>
<feComposite in2="hardAlpha" operator="out"/>
<feColorMatrix type="matrix" values="0 0 0 0 0 0 0 0 0 0 0 0 0 0 0 0 0 0 0.08 0"/>
<feBlend mode="normal" in2="BackgroundImageFix" result="effect1_dropShadow_2670_1497"/>
<feColorMatrix in="SourceAlpha" type="matrix" values="0 0 0 0 0 0 0 0 0 0 0 0 0 0 0 0 0 0 127 0" result="hardAlpha"/>
<feOffset dy="1"/>
<feGaussianBlur stdDeviation="2"/>
<feComposite in2="hardAlpha" operator="out"/>
<feColorMatrix type="matrix" values="0 0 0 0 0 0 0 0 0 0 0 0 0 0 0 0 0 0 0.08 0"/>
<feBlend mode="normal" in2="effect1_dropShadow_2670_1497" result="effect2_dropShadow_2670_1497"/>
<feColorMatrix in="SourceAlpha" type="matrix" values="0 0 0 0 0 0 0 0 0 0 0 0 0 0 0 0 0 0 127 0" result="hardAlpha"/>
<feOffset dy="2"/>
<feGaussianBlur stdDeviation="4"/>
<feComposite in2="hardAlpha" operator="out"/>
<feColorMatrix type="matrix" values="0 0 0 0 0 0 0 0 0 0 0 0 0 0 0 0 0 0 0.06 0"/>
<feBlend mode="normal" in2="effect2_dropShadow_2670_1497" result="effect3_dropShadow_2670_1497"/>
<feBlend mode="normal" in="SourceGraphic" in2="effect3_dropShadow_2670_1497" result="shape"/>
</filter>
</defs>
</svg>
