<svg width="20" height="20" viewBox="0 0 20 20" fill="none" xmlns="http://www.w3.org/2000/svg">
<path d="M13.5594 13.4467C12.8658 14.1553 12.0384 14.7194 11.1253 15.1061C10.2122 15.4929 9.23152 15.6948 8.2399 15.7001C7.24827 15.7054 6.26545 15.514 5.34829 15.1369C4.43113 14.7599 3.59784 14.2047 2.89665 13.5035C2.19546 12.8023 1.64028 11.969 1.26324 11.0519C0.886195 10.1347 0.694776 9.15187 0.700058 8.16025C0.705339 7.16863 0.907215 6.1879 1.294 5.27481C1.68079 4.36171 2.24482 3.53439 2.95344 2.84071C4.36498 1.45893 6.26464 0.689782 8.2399 0.700302C10.2152 0.710822 12.1065 1.50016 13.5033 2.89689C14.9 4.29363 15.6893 6.18499 15.6998 8.16025C15.7104 10.1355 14.9412 12.0352 13.5594 13.4467ZM13.5594 13.4467L18.8624 18.7507" stroke="#8E8E8E" stroke-width="1.4" stroke-linecap="square"/>
</svg>
