<svg width="292" height="31" viewBox="0 0 292 31" fill="none" xmlns="http://www.w3.org/2000/svg">
<path d="M21.76 17.4718L25.44 2.07979H30.368L24.32 23.4878H19.328L15.168 8.73579L10.976 23.4878H5.98403L3.24845e-05 2.07979H4.92803L8.67203 17.5038L13.056 2.07979H17.312L21.76 17.4718ZM41.714 7.07179C43.6127 7.07179 45.1487 7.66913 46.322 8.86379C47.5167 10.0371 48.114 11.5731 48.114 13.4718V23.4878H43.506V14.4958C43.506 13.4931 43.218 12.6825 42.642 12.0638C42.0874 11.4451 41.362 11.1358 40.466 11.1358C39.4847 11.1358 38.6634 11.5198 38.002 12.2878C37.362 13.0345 37.042 13.9838 37.042 15.1358V23.4878H32.434V0.895792H37.042V8.86379C38.3007 7.66913 39.858 7.07179 41.714 7.07179ZM63.617 9.43979V7.39179H67.873V23.4878H63.617V21.4718C62.2944 23.0505 60.545 23.8398 58.369 23.8398C56.1077 23.8398 54.241 23.0505 52.769 21.4718C51.3184 19.8931 50.593 17.8771 50.593 15.4238C50.593 12.9918 51.329 10.9865 52.801 9.40779C54.273 7.82913 56.1504 7.03979 58.433 7.03979C60.5024 7.03979 62.2304 7.83979 63.617 9.43979ZM56.289 18.6238C57.0997 19.4558 58.113 19.8718 59.329 19.8718C60.545 19.8718 61.5584 19.4451 62.369 18.5918C63.1797 17.7171 63.585 16.6505 63.585 15.3918C63.585 14.1758 63.1797 13.1518 62.369 12.3198C61.5584 11.4665 60.5557 11.0398 59.361 11.0398C58.1237 11.0398 57.0997 11.4665 56.289 12.3198C55.4784 13.1518 55.073 14.1971 55.073 15.4558C55.073 16.7145 55.4784 17.7705 56.289 18.6238ZM79.6423 19.8398C80.581 19.8398 81.477 19.6691 82.3303 19.3278V23.1038C81.0716 23.5945 79.7596 23.8398 78.3943 23.8398C76.517 23.8398 75.1196 23.3705 74.2023 22.4318C73.285 21.4718 72.8263 20.1491 72.8263 18.4638V11.2638H70.2023V7.39179H72.8263V2.43179H77.3703V7.39179H81.7863V11.2638H77.3703V17.4398C77.3703 18.2718 77.5303 18.8798 77.8503 19.2638C78.1916 19.6478 78.789 19.8398 79.6423 19.8398ZM87.3868 9.56779H83.5788L85.7868 1.02379H90.9068L87.3868 9.56779ZM98.5295 23.8078C95.4149 23.8078 92.7802 23.0718 90.6255 21.5998L92.2575 18.2398C93.0682 18.7945 94.0709 19.2745 95.2655 19.6798C96.4602 20.0851 97.5909 20.2878 98.6575 20.2878C99.4895 20.2878 100.183 20.1598 100.738 19.9038C101.314 19.6478 101.602 19.2638 101.602 18.7518C101.602 18.2398 101.346 17.8878 100.834 17.6958C100.322 17.4825 99.4042 17.2585 98.0815 17.0238C97.8255 16.9811 97.6335 16.9491 97.5055 16.9278C95.5215 16.5651 94.0282 16.0425 93.0255 15.3598C92.0442 14.6771 91.5535 13.5998 91.5535 12.1278C91.5535 10.5278 92.1722 9.27979 93.4095 8.38379C94.6469 7.48779 96.3962 7.03979 98.6575 7.03979C101.09 7.03979 103.351 7.49846 105.442 8.41579L104.258 11.8398C102.231 10.9011 100.311 10.4318 98.4975 10.4318C96.7695 10.4318 95.9055 10.9225 95.9055 11.9038C95.9055 12.5011 96.3855 12.9385 97.3455 13.2158C97.6869 13.3011 98.3055 13.4185 99.2015 13.5678L99.4895 13.6318C101.772 14.0585 103.436 14.6025 104.482 15.2638C105.527 15.9251 106.05 17.0345 106.05 18.5918C106.05 20.2131 105.367 21.4931 104.002 22.4318C102.658 23.3491 100.834 23.8078 98.5295 23.8078ZM119.615 4.76779C119.082 5.30113 118.421 5.56779 117.631 5.56779C116.842 5.56779 116.17 5.30113 115.615 4.76779C115.082 4.21313 114.815 3.54113 114.815 2.75179C114.815 1.98379 115.082 1.33313 115.615 0.799791C116.17 0.266459 116.842 -0.000207901 117.631 -0.000207901C118.421 -0.000207901 119.082 0.266459 119.615 0.799791C120.149 1.33313 120.415 1.98379 120.415 2.75179C120.415 3.54113 120.149 4.21313 119.615 4.76779ZM119.935 23.4878H115.295V7.39179H119.935V23.4878ZM132.819 7.07179C134.696 7.07179 136.221 7.66913 137.395 8.86379C138.568 10.0371 139.155 11.5731 139.155 13.4718V23.4878H134.579V14.4318C134.579 13.4291 134.291 12.6185 133.715 11.9998C133.16 11.3811 132.435 11.0718 131.539 11.0718C130.557 11.0718 129.736 11.4558 129.075 12.2238C128.435 12.9705 128.115 13.9198 128.115 15.0718V23.4878H123.507V7.39179H127.891V9.31179C129.149 7.81846 130.792 7.07179 132.819 7.07179ZM168.827 7.07179C170.726 7.07179 172.262 7.64779 173.435 8.79979C174.63 9.95179 175.227 11.4665 175.227 13.3438V23.4878H170.651V14.2398C170.651 13.2798 170.384 12.5118 169.851 11.9358C169.318 11.3598 168.624 11.0718 167.771 11.0718C166.832 11.0718 166.054 11.4238 165.435 12.1278C164.816 12.8105 164.507 13.7171 164.507 14.8478V23.4878H159.931V14.3678C159.931 13.3651 159.675 12.5651 159.163 11.9678C158.651 11.3705 157.958 11.0718 157.083 11.0718C156.123 11.0718 155.334 11.4238 154.715 12.1278C154.096 12.8105 153.787 13.7278 153.787 14.8798V23.4878H149.179V7.39179H153.563V9.27979C154.8 7.80779 156.443 7.07179 158.491 7.07179C160.667 7.07179 162.278 7.88246 163.323 9.50379C164.71 7.88246 166.544 7.07179 168.827 7.07179ZM185.757 19.5838L189.981 7.39179H194.653L188.893 23.0078C188.573 23.9038 188.274 24.6505 187.997 25.2478C187.72 25.8665 187.336 26.5278 186.845 27.2318C186.376 27.9571 185.864 28.5331 185.309 28.9598C184.776 29.4078 184.093 29.7705 183.261 30.0478C182.45 30.3465 181.544 30.4958 180.541 30.4958C179.368 30.4958 178.12 30.2505 176.797 29.7598V25.7278C177.949 26.2611 179.037 26.5278 180.061 26.5278C180.957 26.5278 181.672 26.3785 182.205 26.0798C182.76 25.7811 183.229 25.2798 183.613 24.5758L176.253 7.39179H180.989L185.757 19.5838ZM212.993 2.07979C215.34 2.07979 217.249 2.80513 218.721 4.25579C220.193 5.68513 220.929 7.54113 220.929 9.82379C220.929 12.1491 220.172 14.0265 218.657 15.4558C217.164 16.8851 215.169 17.5998 212.673 17.5998H207.649V23.4878H202.945V2.07979H212.993ZM207.649 13.5678H212.257C213.409 13.5678 214.348 13.2265 215.073 12.5438C215.799 11.8398 216.161 10.9438 216.161 9.85579C216.161 8.76779 215.809 7.88246 215.105 7.19979C214.401 6.49579 213.495 6.14379 212.385 6.14379H207.649V13.5678ZM241.576 23.4878H236.552L235.24 19.2958H226.728L225.32 23.4878H220.264L228.232 2.07979H233.8L241.576 23.4878ZM234.056 15.3598L231.016 6.17579L227.944 15.3598H234.056ZM252.882 23.8398C249.703 23.8398 247.058 22.7945 244.946 20.7038C242.855 18.6131 241.81 15.9785 241.81 12.7998C241.81 9.62113 242.855 6.98646 244.946 4.89579C247.058 2.78379 249.714 1.72779 252.914 1.72779C255.196 1.72779 257.223 2.29313 258.994 3.42379C260.786 4.55446 262.087 6.06913 262.898 7.96779L258.77 10.0478C258.258 8.83179 257.468 7.86113 256.402 7.13579C255.356 6.41046 254.162 6.04779 252.818 6.04779C251.004 6.04779 249.479 6.69846 248.242 7.99979C247.026 9.27979 246.418 10.8798 246.418 12.7998C246.418 14.6985 247.036 16.2985 248.274 17.5998C249.511 18.8798 251.036 19.5198 252.85 19.5198C254.194 19.5198 255.399 19.1571 256.466 18.4318C257.532 17.7065 258.311 16.7358 258.802 15.5198L263.026 17.4078C262.236 19.3705 260.935 20.9385 259.122 22.1118C257.308 23.2638 255.228 23.8398 252.882 23.8398ZM274.797 12.8638L284.269 23.4878H278.317L270.285 14.3998V23.4878H265.517V2.07979H270.285V11.6158L278.413 2.07979H284.077L274.797 12.8638ZM291.12 16.9278H286.512L286.128 0.895792H291.6L291.12 16.9278ZM288.848 23.8718C288.08 23.8718 287.429 23.6158 286.896 23.1038C286.384 22.5705 286.128 21.9305 286.128 21.1838C286.128 20.4371 286.384 19.7971 286.896 19.2638C287.429 18.7305 288.08 18.4638 288.848 18.4638C289.595 18.4638 290.224 18.7305 290.736 19.2638C291.269 19.7971 291.536 20.4371 291.536 21.1838C291.536 21.9091 291.269 22.5385 290.736 23.0718C290.203 23.6051 289.573 23.8718 288.848 23.8718Z" fill="#2A2A2A"/>
</svg>
