<svg width="24" height="24" viewBox="0 0 24 24" fill="none" xmlns="http://www.w3.org/2000/svg">
<g clip-path="url(#clip0_2526_851)">
<path d="M11.3453 20.5942C11.1293 20.5172 10.9392 20.3967 10.775 20.2327L9.3385 18.9269C7.5655 17.3102 5.9825 15.7221 4.5895 14.1624C3.1965 12.6027 2.5 10.9319 2.5 9.1499C2.5 7.73074 2.9785 6.54257 3.9355 5.5854C4.89267 4.6284 6.08083 4.1499 7.5 4.1499C8.30633 4.1499 9.10283 4.33582 9.8895 4.70765C10.676 5.07949 11.3795 5.68332 12 6.51915C12.6205 5.68332 13.324 5.07949 14.1105 4.70765C14.8972 4.33582 15.6937 4.1499 16.5 4.1499C17.9192 4.1499 19.1073 4.6284 20.0645 5.5854C21.0215 6.54257 21.5 7.73074 21.5 9.1499C21.5 10.9512 20.7917 12.6407 19.375 14.2182C17.9583 15.7957 16.3788 17.3703 14.6365 18.9422L13.2153 20.2327C13.0513 20.3967 12.8597 20.5172 12.6405 20.5942C12.4212 20.671 12.2045 20.7094 11.9905 20.7094C11.7763 20.7094 11.5612 20.671 11.3453 20.5942Z" fill="black" fill-opacity="0.05"/>
<path d="M16.5 4.8999C17.6541 4.8999 18.5995 5.25799 19.3799 5.96924L19.5342 6.11572C20.3431 6.92482 20.75 7.91891 20.75 9.1499C20.75 10.7342 20.1336 12.2516 18.8174 13.7173C17.42 15.2733 15.8586 16.8292 14.1338 18.3853L14.1328 18.3872L12.7109 19.6772L12.6973 19.6899L12.6846 19.7026C12.6002 19.7869 12.5048 19.8465 12.3916 19.8862C12.2454 19.9373 12.1126 19.9595 11.9902 19.9595C11.8676 19.9594 11.7366 19.9373 11.5957 19.8872C11.4862 19.848 11.3909 19.7878 11.3047 19.7017L11.293 19.6899L11.2793 19.6772L9.84277 18.3716C8.08648 16.7701 6.5218 15.2003 5.14844 13.6626C3.85584 12.2152 3.25 10.7162 3.25 9.1499C3.25 7.99584 3.60809 7.05042 4.31934 6.27002L4.46582 6.11572C5.27491 5.30679 6.26901 4.8999 7.5 4.8999C8.18691 4.8999 8.87481 5.05697 9.56934 5.38525C10.2244 5.69497 10.8361 6.21019 11.3975 6.96631L12 7.77783L12.6025 6.96631C13.1639 6.21019 13.7756 5.69497 14.4307 5.38525C15.1252 5.05697 15.8131 4.8999 16.5 4.8999Z" stroke="black" stroke-opacity="0.22" stroke-width="1.5"/>
</g>
<defs>
<clipPath id="clip0_2526_851">
<rect width="24" height="24" fill="white"/>
</clipPath>
</defs>
</svg>
